<?xml version="1.0" encoding="UTF-8"?>
<svg version="1.1" xmlns="http://www.w3.org/2000/svg" width="395" height="395">
<path d="M0 0 C130.35 0 260.7 0 395 0 C395 130.35 395 260.7 395 395 C264.65 395 134.3 395 0 395 C0 264.65 0 134.3 0 0 Z " fill="#EAEAE9" transform="translate(0,0)"/>
<path d="M0 0 C130.35 0 260.7 0 395 0 C395 130.35 395 260.7 395 395 C264.65 395 134.3 395 0 395 C0 264.65 0 134.3 0 0 Z M145.50335693 2.0189209 C126.3299596 1.99910163 126.3299596 1.99910163 108 7 C107.38326416 7.1956958 106.76652832 7.3913916 106.13110352 7.59301758 C100.7217218 9.36170524 97.31309955 11.94662244 93.3125 15.9375 C92.22668157 16.98974973 91.13946433 18.04055813 90.05078125 19.08984375 C89.53394775 19.59281982 89.01711426 20.0957959 88.48461914 20.61401367 C87 22 87 22 84.390625 24.046875 C78.94535145 28.4956279 74.10152184 34.5550031 70.875 40.8125 C68.96869332 44.05322135 68.40768047 44.38741539 65.41514587 46.17056274 C62.67720001 48.48849571 62.05176608 49.71149021 61.4091053 53.29325485 C61.25614558 57.70028006 61.33076106 62.05363605 61.48266602 66.45849609 C61.51536369 68.15199702 61.54508023 69.84555775 61.5720377 71.53915977 C61.65411342 76.09403742 61.78118068 80.6466058 61.918818 85.20010281 C62.02541374 88.87649803 62.1084751 92.55324883 62.1910637 96.23024929 C62.456333 107.98929636 62.8095151 119.74509818 63.17864299 131.50127459 C63.34738002 136.90831939 63.51007338 142.31554703 63.67372131 147.7227478 C63.9479491 156.75344415 64.22677116 165.78398926 64.50854492 174.81445312 C64.83395887 185.24528302 65.15196886 195.67631963 65.466196 206.10749209 C65.77073375 216.21188774 66.08021227 226.31612612 66.39203072 236.42029953 C66.52398016 240.69847376 66.65422615 244.9766948 66.78309441 249.25496292 C66.93420763 254.26398369 67.08964796 259.27285173 67.24848366 264.28163338 C67.30603068 266.11825353 67.36208198 267.95492123 67.41654205 269.79163551 C67.4909627 272.29317284 67.57076179 274.7944818 67.65196228 277.29580688 C67.67239513 278.02475178 67.69282798 278.75369668 67.71388 279.50473082 C67.82656976 282.80673712 68.0779669 285.82505295 69 289 C69.108332 290.84124035 69.16576136 292.68575694 69.18945312 294.5300293 C69.20622101 295.64554169 69.22298889 296.76105408 69.24026489 297.91036987 C69.26055252 299.72397507 69.26055252 299.72397507 69.28125 301.57421875 C69.29920624 302.83469025 69.31716248 304.09516174 69.33566284 305.39382935 C69.37395337 308.09357025 69.4106798 310.79328318 69.44500732 313.49307251 C69.49893695 317.68714441 69.56191954 321.88104603 69.62744141 326.07495117 C69.63821276 326.76504807 69.64898411 327.45514498 69.66008186 328.16615391 C69.68179314 329.55338105 69.70355007 330.94060748 69.72535324 332.32783318 C69.76834918 335.07058172 69.81064789 337.81334085 69.85296822 340.55609989 C69.90163298 343.70407198 69.95086156 346.85203527 70 350 C70.01591187 351.03499634 70.03182373 352.06999268 70.04821777 353.13635254 C70.12476828 358.02446924 70.21258757 362.91190438 70.32983398 367.79922485 C70.37363408 369.75161434 70.40287202 371.7043136 70.43164062 373.65698242 C70.61699977 380.69915088 71.07832901 386.69383795 75.14362526 392.6855545 C78.00644063 394.71263163 80.96942068 394.41986402 84.35043335 394.39440918 C85.4821723 394.40354584 85.4821723 394.40354584 86.63677466 394.41286707 C89.17255225 394.42955601 91.70783092 394.42471298 94.24365234 394.41992188 C96.05862451 394.42725885 97.87359201 394.43584399 99.68855286 394.44558716 C104.62454505 394.46785232 109.56037056 394.4707313 114.49640608 394.46883965 C118.61428938 394.46872016 122.73213709 394.47727534 126.85001051 394.48561716 C136.56409354 394.50486967 146.27809062 394.50772851 155.9921875 394.50097656 C166.01872329 394.49433573 176.0448912 394.51719763 186.07135236 394.55429029 C194.6744138 394.58496418 203.27735678 394.59634979 211.88047183 394.59245348 C217.02102708 394.59038339 222.16129621 394.59590503 227.30179977 394.62034607 C232.13642351 394.64257216 236.97044847 394.64076992 241.80507469 394.62041855 C243.58001989 394.61700103 245.35500506 394.62212947 247.12989616 394.63640213 C249.55249913 394.65453971 251.97305892 394.64188884 254.39559937 394.62145996 C255.09881423 394.63397781 255.8020291 394.64649566 256.52655351 394.65939283 C260.35620069 394.59010858 261.92412424 394.0606612 264.95574379 391.63694 C267.22755576 389.17994308 267.22755576 389.17994308 267.3125 386.1875 C267.209375 385.465625 267.10625 384.74375 267 384 C267.66 384 268.32 384 269 384 C269.33 369.48 269.66 354.96 270 340 C271.32 339.34 272.64 338.68 274 338 C275.12792969 337.35417969 276.25585938 336.70835937 277.41796875 336.04296875 C283.06885235 333.21818174 289.13669078 332.38013572 295.3125 331.3125 C297.64219873 330.89343445 299.97163922 330.47292992 302.30078125 330.05078125 C303.32341064 329.87200439 304.34604004 329.69322754 305.3996582 329.5090332 C308.09827537 329.03840042 308.09827537 329.03840042 311 328 C311 327.34 311 326.68 311 326 C311.82371094 325.9071875 312.64742187 325.814375 313.49609375 325.71875 C317.69822994 324.85677335 321.20626722 323.3383449 325.0625 321.5 C325.8054834 321.14760254 326.5484668 320.79520508 327.31396484 320.43212891 C334.41746249 316.96191562 340.71568285 312.79190421 347 308 C347.68449219 307.48824219 348.36898438 306.97648437 349.07421875 306.44921875 C360.44646357 297.3769785 370.41664935 282.14186315 374 268 C374.24778702 267.10388504 374.49557404 266.20777008 374.75086975 265.28450012 C377.00545066 256.54783087 377.45816206 248.16178724 377.43359375 239.19921875 C377.43817295 237.70912951 377.44348356 236.21904235 377.44947815 234.72895813 C377.45834278 231.62528842 377.4560641 228.52187691 377.44604492 225.41821289 C377.43457995 221.488466 377.45476237 217.55962114 377.48396206 213.62999249 C377.50252653 210.55740423 377.50199169 207.48502398 377.49632454 204.41239357 C377.4961737 202.9658666 377.50201615 201.51932328 377.51461601 200.07285118 C377.60640077 187.81081574 375.828755 176.35480989 371 165 C370.34 165 369.68 165 369 165 C368.7525 163.783125 368.505 162.56625 368.25 161.3125 C366.12458266 153.12677106 359.93978912 149.22877045 353 145 C344.57768731 140.84157728 335.77038828 140.85359293 326.58984375 140.7890625 C324.36132057 140.76101048 322.13280503 140.73234615 319.90429688 140.703125 C316.4130054 140.66179921 312.92185926 140.62488241 309.43041992 140.59863281 C306.04576782 140.57102049 302.66175074 140.5251722 299.27734375 140.4765625 C298.23658188 140.47330963 297.19582001 140.47005676 296.1235199 140.46670532 C290.71039721 140.37501086 286.61383441 140.16221306 282 137 C280.61382611 135.03625365 279.26987969 133.04087808 278 131 C277.34 131 276.68 131 276 131 C276.03029297 129.93716797 276.06058594 128.87433594 276.09179688 127.77929688 C276.82897854 101.51337494 277.13874289 75.27576972 277 49 C276.34 49 275.68 49 275 49 C275 48.34 275 47.68 275 47 C274.38648682 46.55640137 273.77297363 46.11280273 273.14086914 45.65576172 C270.68526177 43.75657947 269.95379149 42.34011343 268.74609375 39.5078125 C268.36646484 38.63769531 267.98683594 37.76757812 267.59570312 36.87109375 C267.21349609 35.96488281 266.83128906 35.05867188 266.4375 34.125 C262.887626 25.86369057 260.0441818 19.53695148 253.03515625 13.7109375 C251 12 251 12 249.49609375 10.4765625 C245.74335083 6.77727746 242.59293578 6.41655346 237.5625 6.3359375 C235 6 235 6 232.4140625 4.51953125 C227.43692007 2.30430424 222.77369489 2.41935157 217.375 2.3125 C216.15441895 2.27979004 214.93383789 2.24708008 213.67626953 2.21337891 C190.9607387 1.66400334 168.2224143 1.84674371 145.50335693 2.0189209 Z " fill="#1A1919" transform="translate(0,0)"/>
<path d="M0 0 C1.02609375 0.07863281 2.0521875 0.15726563 3.109375 0.23828125 C6.25 0.6875 6.25 0.6875 9.12890625 1.71484375 C12.93545512 2.90111492 16.49351935 2.98112006 20.4375 2.9375 C21.14841797 2.94523438 21.85933594 2.95296875 22.59179688 2.9609375 C26.35012031 2.94679517 28.0489956 2.82150293 31.25 0.6875 C34.47265625 0.421875 34.47265625 0.421875 38.3125 0.4375 C39.56160156 0.43234375 40.81070313 0.4271875 42.09765625 0.421875 C45.32377278 0.53293132 48.35008257 1.04868518 51.50952148 1.70410156 C52.40017807 1.88732971 53.29083466 2.07055786 54.20848083 2.25933838 C54.88218216 2.40063171 55.55588348 2.54192505 56.25 2.6875 C56.38425036 21.00692123 56.03926611 39.28713544 55.44268799 57.59615326 C55.35004131 60.45864527 55.26038183 63.3212282 55.17065811 66.1838131 C54.87270248 75.68533749 54.5630854 85.1864637 54.25 94.6875 C54.2061728 96.02095527 54.16234947 97.35441067 54.11853027 98.68786621 C53.21275268 126.19033072 52.23090058 153.68991982 51.1875 181.1875 C51.14729736 182.25756287 51.10709473 183.32762573 51.06567383 184.43011475 C50.84470886 190.28921732 50.61031289 196.14748892 50.35906982 202.00537109 C50.25066135 204.67123691 50.16177308 207.33726852 50.07470703 210.00390625 C50.01009976 211.63804705 49.94486863 213.27216334 49.87890625 214.90625 C49.85996811 215.64121704 49.84102997 216.37618408 49.82151794 217.13342285 C49.6339052 221.28405002 49.30547223 223.79858711 46.25 226.6875 C43.0909338 227.18527794 43.0909338 227.18527794 39.10716248 227.18197632 C38.37505446 227.18680515 37.64294644 227.19163398 36.88865334 227.19660914 C34.42858281 227.20790628 31.96954578 227.19054223 29.50952148 227.17333984 C27.74879677 227.17548505 25.98807344 227.17936177 24.22735596 227.18484497 C19.44022296 227.19455442 14.6534618 227.17921569 9.86637378 227.15893888 C4.86380594 227.14139999 -0.13874985 227.14489233 -5.14134216 227.1456604 C-13.54212688 227.14378623 -21.94276727 227.12640571 -30.34350586 227.09912109 C-40.06665891 227.06765884 -49.78965388 227.05712518 -59.51285416 227.0585922 C-68.85408579 227.05981142 -78.19526574 227.04961347 -87.53648186 227.03300858 C-91.51771383 227.02593364 -95.49892752 227.02228076 -99.48016548 227.02122116 C-104.16443832 227.01921717 -108.84857759 227.00704769 -113.5328064 226.98688889 C-115.2557843 226.98103025 -116.97877758 226.97858989 -118.70176506 226.97974396 C-121.04603567 226.98072025 -123.38992803 226.96946519 -125.73414612 226.95492554 C-127.04841363 226.95157385 -128.36268114 226.94822216 -129.71677494 226.94476891 C-132.75 226.6875 -132.75 226.6875 -134.75 224.6875 C-135.14772034 222.06523132 -135.14772034 222.06523132 -135.34594727 218.8034668 C-135.4194339 217.62851654 -135.49292053 216.45356628 -135.56863403 215.24301147 C-135.83063662 210.10669394 -136.05141424 204.97243971 -136.21484375 199.83203125 C-136.25235245 198.72095505 -136.28986115 197.60987885 -136.32850647 196.46513367 C-136.45100939 192.81017722 -136.56931091 189.15509828 -136.6875 185.5 C-136.77393206 182.89452605 -136.86052412 180.28905741 -136.94726562 177.68359375 C-137.40821855 163.76248187 -137.84047648 149.84056801 -138.25390625 135.91796875 C-138.27445635 135.22681662 -138.29500645 134.53566448 -138.31617928 133.82356834 C-138.50268897 127.54922755 -138.68895929 121.27488 -138.87271118 115.00045776 C-139.45057932 95.29803404 -140.17794283 75.6055094 -141.00775146 55.91195679 C-141.73264571 38.49469374 -142.00995152 21.11824944 -141.75 3.6875 C-140.16233396 3.32623016 -138.57192935 2.97698179 -136.98046875 2.6328125 C-136.09512451 2.43703613 -135.20978027 2.24125977 -134.29760742 2.03955078 C-130.75325201 1.5497606 -128.10233662 2.54897058 -124.75 3.6875 C-120.98857169 3.87557142 -118.32165595 3.87805198 -114.75 2.6875 C-113.22567824 2.68329787 -111.7006751 2.74289762 -110.1796875 2.84375 C-108.83390625 2.92302734 -108.83390625 2.92302734 -107.4609375 3.00390625 C-105.59365157 3.12479115 -103.72646031 3.24714882 -101.859375 3.37109375 C-96.00014352 3.71329958 -90.55995613 3.575944 -84.75 2.6875 C-84.42 2.3575 -84.09 2.0275 -83.75 1.6875 C-78.52109703 1.35015142 -74.38905336 1.66023087 -69.375 3.1875 C-63.91267281 4.8031179 -58.41964992 5.66436536 -52.75 4.6875 C-52.30809326 4.19032471 -51.86618652 3.69314941 -51.41088867 3.1809082 C-49.16800393 1.16419117 -47.84280742 1.34035805 -44.86328125 1.39453125 C-43.4565918 1.4090332 -43.4565918 1.4090332 -42.02148438 1.42382812 C-41.04501953 1.44896484 -40.06855469 1.47410156 -39.0625 1.5 C-38.07443359 1.51353516 -37.08636719 1.52707031 -36.06835938 1.54101562 C-33.62835769 1.57637797 -31.18945281 1.62572967 -28.75 1.6875 C-28.75 2.3475 -28.75 3.0075 -28.75 3.6875 C-25.29086334 3.21401786 -21.83285411 2.73275236 -18.375 2.25 C-17.39015625 2.11529297 -16.4053125 1.98058594 -15.390625 1.84179688 C-13.97910156 1.64360352 -13.97910156 1.64360352 -12.5390625 1.44140625 C-11.66975098 1.32095947 -10.80043945 1.2005127 -9.90478516 1.07641602 C-2.69610264 -0.22467522 -2.69610264 -0.22467522 0 0 Z " fill="#FAC537" transform="translate(212.75,128.3125)"/>
<path d="M0 0 C5.67974048 6.53170155 7.61315264 13.17923766 7.64526367 21.76000977 C7.65164352 22.92214493 7.65802338 24.08428009 7.66459656 25.28163147 C7.66570938 26.53060715 7.6668222 27.77958282 7.66796875 29.06640625 C7.67296135 31.01074806 7.67296135 31.01074806 7.67805481 32.99436951 C7.68403359 35.73884919 7.68589623 38.48329747 7.68530273 41.2277832 C7.68520171 44.71174004 7.69879764 48.19549036 7.71607494 51.67939854 C7.73000837 55.03756998 7.72928772 58.3957064 7.73046875 61.75390625 C7.73765427 62.98871231 7.74483978 64.22351837 7.75224304 65.4957428 C7.71696985 79.07245622 6.32938442 91.96729172 -2.875 102.625 C-3.74125 103.3675 -4.6075 104.11 -5.5 104.875 C-6.02722656 105.46410156 -6.55445313 106.05320312 -7.09765625 106.66015625 C-17.31601703 117.91987864 -32.81626735 125.05004178 -47.90234375 126.03125 C-53.47473725 126.23235894 -57.59240041 125.80068437 -62.5 122.875 C-66.82158638 118.73918317 -69.41626613 115.49596017 -69.61352539 109.3215332 C-69.6133674 107.85627301 -69.60773819 106.39100676 -69.59765625 104.92578125 C-69.5962413 104.15316452 -69.59482635 103.38054779 -69.59336853 102.58451843 C-69.58777466 100.11880611 -69.57522333 97.65318485 -69.5625 95.1875 C-69.55748421 93.51497527 -69.55292144 91.84244912 -69.54882812 90.16992188 C-69.53780724 86.07157954 -69.52054684 81.97330521 -69.5 77.875 C-68.84 77.875 -68.18 77.875 -67.5 77.875 C-67.50523682 77.03767334 -67.51047363 76.20034668 -67.51586914 75.33764648 C-67.59725927 60.18156883 -67.62548358 45.02228734 -67.23654175 29.86990356 C-67.18858771 27.91924555 -67.15383279 25.96827724 -67.11938477 24.01733398 C-66.89058343 16.27700037 -66.65699904 8.75804399 -61.59765625 2.53515625 C-60.92605469 2.00792969 -60.25445312 1.48070312 -59.5625 0.9375 C-58.55896484 0.11958984 -58.55896484 0.11958984 -57.53515625 -0.71484375 C-53.78407795 -3.31395942 -50.84953469 -4.38901024 -46.28125 -4.7578125 C-44.75757813 -4.88349609 -44.75757813 -4.88349609 -43.203125 -5.01171875 C-42.14609375 -5.09035156 -41.0890625 -5.16898438 -40 -5.25 C-38.46085937 -5.37955078 -38.46085937 -5.37955078 -36.890625 -5.51171875 C-9.07441522 -7.71325294 -9.07441522 -7.71325294 0 0 Z " fill="#1B1A1A" transform="translate(340.5,175.125)"/>
<path d="M0 0 C0.66 0 1.32 0 2 0 C2.0470961 0.62414795 2.0941922 1.2482959 2.14271545 1.89135742 C4.72354206 36.0295883 7.48831978 70.14702107 10.5 104.25 C10.64969369 105.94636911 10.79937224 107.64273955 10.94903564 109.33911133 C11.02301449 110.17757599 11.09699333 111.01604065 11.17321396 111.87991333 C11.24705433 112.71682709 11.3208947 113.55374084 11.39697266 114.41601562 C11.47062168 115.25075409 11.54427071 116.08549255 11.62015152 116.94552612 C11.84185238 119.45847287 12.06350813 121.9714236 12.28515625 124.484375 C12.35772141 125.30680695 12.43028656 126.12923889 12.50505066 126.97659302 C13.90437381 142.84235771 15.27509491 158.71041557 16.60791016 174.58190918 C16.82526317 177.16575353 17.04382321 179.74949668 17.26367188 182.33312988 C17.56324898 185.85723117 17.85847824 189.38166845 18.15234375 192.90625 C18.23947128 193.92317932 18.32659882 194.94010864 18.41636658 195.987854 C18.53305443 197.40635651 18.53305443 197.40635651 18.65209961 198.85351562 C18.71981064 199.6603479 18.78752167 200.46718018 18.85728455 201.29846191 C19.04548398 204.86099088 19 208.43250344 19 212 C46.72 212 74.44 212 103 212 C103.33 205.4 103.66 198.8 104 192 C104.816438 181.20854851 104.816438 181.20854851 105.13980103 177.45394897 C105.21154667 176.61595135 105.28329231 175.77795372 105.35721207 174.91456223 C105.46861841 173.61445646 105.46861841 173.61445646 105.58227539 172.28808594 C105.74034889 170.41326317 105.8981205 168.53841492 106.05561829 166.6635437 C106.47812571 161.64396637 106.90477861 156.62474957 107.33225942 151.60559368 C107.78049098 146.33413396 108.22479451 141.06234311 108.66954041 135.79058838 C109.50967192 125.83913481 110.35326221 115.88797769 111.19814056 105.93692613 C112.16096078 94.594707 113.11985615 83.2521571 114.07844555 71.90957975 C116.04797466 48.60601965 118.02235563 25.30287271 120 2 C120.33 2 120.66 2 121 2 C121 29.06 121 56.12 121 84 C122.65 84 124.3 84 126 84 C126 84.99 126 85.98 126 87 C124.35 87 122.7 87 121 87 C121.00138269 87.83873878 121.00138269 87.83873878 121.00279331 88.69442177 C121.02497016 102.36042355 121.04140645 116.02642214 121.05181217 129.69243813 C121.05701468 136.30147602 121.06406419 142.91050086 121.07543945 149.51953125 C121.08636229 155.90619407 121.09229663 162.29284439 121.09487724 168.67951584 C121.09671463 171.10735648 121.10030238 173.5351965 121.10573006 175.96303177 C121.11306545 179.38243297 121.11398573 182.80178351 121.11352539 186.22119141 C121.11712067 187.20878952 121.12071594 188.19638763 121.12442017 189.21391296 C121.11334623 196.89277188 120.55120429 204.28313988 120 212 C129.9 212 139.8 212 150 212 C150 212.33 150 212.66 150 213 C90.93 213 31.86 213 -29 213 C-29.33 212.34 -29.66 211.68 -30 211 C-14.16 211.495 -14.16 211.495 2 212 C1.90150757 208.41910522 1.90150757 208.41910522 1.80102539 204.76586914 C1.03206531 175.88798319 0.70061899 147.01198298 0.46757126 118.12537766 C0.43713179 114.39234288 0.40541151 110.65932098 0.37332153 106.92630005 C0.0678835 71.28381491 -0.16446731 35.64386205 0 0 Z " fill="#FBD05C" transform="translate(109,142)"/>
<path d="M0 0 C-3.54351073 1.61989062 -6.12719419 2.10414268 -10 2 C-9.96970703 2.85416504 -9.93941406 3.70833008 -9.90820312 4.58837891 C-9.30999929 21.73152026 -8.83643144 38.84347516 -9 56 C-9.33 56 -9.66 56 -10 56 C-11.03676733 44.04982536 -11.31306719 32.11202835 -11.5625 20.125 C-11.60580612 18.16535763 -11.64942372 16.20572211 -11.69335938 14.24609375 C-11.79915843 9.49746713 -11.90076153 4.74876807 -12 0 C-3.21428571 -1.20535714 -3.21428571 -1.20535714 0 0 Z " fill="#ECDBAD" transform="translate(81,130)"/>
<path d="M0 0 C0.33 0 0.66 0 1 0 C1 8.91 1 17.82 1 27 C2.65 27 4.3 27 6 27 C6 27.99 6 28.98 6 30 C1.125 29.125 1.125 29.125 0 28 C-0.08767112 25.92737924 -0.10695873 23.85179706 -0.09765625 21.77734375 C-0.09443359 20.51728516 -0.09121094 19.25722656 -0.08789062 17.95898438 C-0.07953403 16.61848891 -0.07106907 15.27799412 -0.0625 13.9375 C-0.0574866 12.59310058 -0.05292342 11.2486994 -0.04882812 9.90429688 C-0.03699488 6.60282059 -0.02050971 3.30143197 0 0 Z " fill="#FBD369" transform="translate(229,199)"/>
<path d="M0 0 C-1.65334757 3.90791244 -4.26807489 6.78998799 -7 10 C-7.66 10.99 -8.32 11.98 -9 13 C-9.33 12.01 -9.66 11.02 -10 10 C-4.25531915 0 -4.25531915 0 0 0 Z " fill="#323131" transform="translate(285,174)"/>
<path d="M0 0 C0 0.66 0 1.32 0 2 C-4.873261 3.5912689 -8.80790596 4.21192221 -14 4 C-14 3.34 -14 2.68 -14 2 C-12.22978678 1.663389 -10.45880326 1.33082707 -8.6875 1 C-7.70136719 0.814375 -6.71523438 0.62875 -5.69921875 0.4375 C-3 0 -3 0 0 0 Z " fill="#424242" transform="translate(301,330)"/>
</svg>
